<?xml version="1.0" encoding="UTF-8"?><svg xmlns="http://www.w3.org/2000/svg" xmlns:xlink="http://www.w3.org/1999/xlink" fill-opacity="1" color-rendering="auto" color-interpolation="auto" text-rendering="auto" stroke="black" stroke-linecap="square" width="2286" stroke-miterlimit="10" shape-rendering="auto" stroke-opacity="1" fill="black" stroke-dasharray="none" font-weight="normal" stroke-width="1" height="1114" font-family="'Dialog'" font-style="normal" stroke-linejoin="miter" font-size="12px" stroke-dashoffset="0" image-rendering="auto">
  <!--Generated by ySVG 2.5-->
  <defs id="genericDefs"/>
  <g>
    <defs id="defs1">
      <clipPath clipPathUnits="userSpaceOnUse" id="clipPath1">
        <path d="M0 0 L2286 0 L2286 1114 L0 1114 L0 0 Z"/>
      </clipPath>
      <clipPath clipPathUnits="userSpaceOnUse" id="clipPath2">
        <path d="M-406 1149 L1880 1149 L1880 2263 L-406 2263 L-406 1149 Z"/>
      </clipPath>
    </defs>
    <g fill="white" text-rendering="geometricPrecision" shape-rendering="geometricPrecision" transform="translate(406,-1149)" stroke="white">
      <rect x="-406" width="2286" height="1114" y="1149" clip-path="url(#clipPath2)" stroke="none"/>
    </g>
    <g text-rendering="geometricPrecision" stroke-miterlimit="1.45" shape-rendering="geometricPrecision" transform="matrix(1,0,0,1,406,-1149)" stroke-linecap="butt">
      <ellipse rx="52.5" fill="none" ry="25.5" clip-path="url(#clipPath2)" cx="478.3035" cy="1712.7454"/>
      <text x="430.2888" xml:space="preserve" y="1717.4592" clip-path="url(#clipPath2)" font-family="sans-serif" stroke="none">The first algorithm</text>
      <ellipse rx="131.8622" fill="none" ry="20.25" clip-path="url(#clipPath2)" cx="692.4641" cy="1954.3854"/>
      <text x="575.0482" xml:space="preserve" y="1959.0992" clip-path="url(#clipPath2)" font-family="sans-serif" stroke="none">Ada King Lovelace Countess of, 1815-1852.</text>
      <ellipse clip-path="url(#clipPath2)" fill="none" rx="79.0352" cx="1013.3599" ry="15" cy="2036.2312" stroke="rgb(255,102,0)" stroke-width="2"/>
      <text x="941.3248" xml:space="preserve" y="2040.9451" clip-path="url(#clipPath2)" font-family="sans-serif" stroke="none">Painting by M.S. Carpenter</text>
      <ellipse rx="106.3896" fill="none" ry="15" clip-path="url(#clipPath2)" cx="739.6289" cy="2036.2312"/>
      <text x="640.2393" xml:space="preserve" y="2040.9451" clip-path="url(#clipPath2)" font-family="sans-serif" stroke="none">Portrait of Ada, Countess of Lovelace</text>
      <ellipse rx="77.0342" fill="none" ry="15" clip-path="url(#clipPath2)" cx="931.3605" cy="1919.1354"/>
      <text x="861.3264" xml:space="preserve" y="1923.8492" clip-path="url(#clipPath2)" font-family="sans-serif" stroke="none">Margaret Sarah Carpenter</text>
      <ellipse rx="20.3477" fill="none" ry="15" clip-path="url(#clipPath2)" cx="1061.5381" cy="2213.327"/>
      <text x="1048.1904" xml:space="preserve" y="2218.0408" clip-path="url(#clipPath2)" font-family="sans-serif" stroke="none">1836</text>
      <ellipse rx="28.6826" fill="none" ry="15" clip-path="url(#clipPath2)" cx="906.1506" cy="2232.5205"/>
      <text x="884.468" xml:space="preserve" y="2237.2344" clip-path="url(#clipPath2)" font-family="sans-serif" stroke="none">Painting</text>
      <ellipse rx="87.0449" fill="none" ry="15" clip-path="url(#clipPath2)" cx="1190.4505" cy="2096.2312"/>
      <text x="1110.4055" xml:space="preserve" y="2100.9451" clip-path="url(#clipPath2)" font-family="sans-serif" stroke="none">Collection of 4th Earl of Lytton</text>
    </g>
    <g fill="white" text-rendering="geometricPrecision" shape-rendering="geometricPrecision" transform="matrix(1,0,0,1,406,-1149)" stroke="white">
      <ellipse rx="43.3516" ry="15" clip-path="url(#clipPath2)" cx="803.8609" cy="2115.0254" stroke="none"/>
    </g>
    <g text-rendering="geometricPrecision" stroke-miterlimit="1.45" shape-rendering="geometricPrecision" transform="matrix(1,0,0,1,406,-1149)" stroke-linecap="butt">
      <ellipse rx="43.3516" fill="none" ry="15" clip-path="url(#clipPath2)" cx="803.8609" cy="2115.0254"/>
      <text x="767.5094" xml:space="preserve" y="2119.7393" clip-path="url(#clipPath2)" font-family="sans-serif" stroke="none">Oil on canvas</text>
      <ellipse clip-path="url(#clipPath2)" fill="none" rx="89.7168" cx="513.7571" ry="15" cy="1425.3554" stroke="rgb(255,102,0)" stroke-width="2"/>
      <text x="431.0403" xml:space="preserve" y="1430.0692" clip-path="url(#clipPath2)" font-family="sans-serif" stroke="none">Sketch of the Analytical Engine</text>
    </g>
    <g fill="white" text-rendering="geometricPrecision" shape-rendering="geometricPrecision" transform="matrix(1,0,0,1,406,-1149)" stroke="white">
      <ellipse rx="101.04" ry="15" clip-path="url(#clipPath2)" cx="585.726" cy="1179.389" stroke="none"/>
    </g>
    <g text-rendering="geometricPrecision" stroke-miterlimit="1.45" shape-rendering="geometricPrecision" transform="matrix(1,0,0,1,406,-1149)" stroke-linecap="butt">
      <ellipse rx="101.04" fill="none" ry="15" clip-path="url(#clipPath2)" cx="585.726" cy="1179.389"/>
      <text x="491.6859" xml:space="preserve" y="1184.1029" clip-path="url(#clipPath2)" font-family="sans-serif" stroke="none">Luigi Federico MENABREA, Count.</text>
    </g>
    <g fill="white" text-rendering="geometricPrecision" shape-rendering="geometricPrecision" transform="matrix(1,0,0,1,406,-1149)" stroke="white">
      <ellipse rx="87.0596" ry="15" clip-path="url(#clipPath2)" cx="325.7348" cy="1251.2101" stroke="none"/>
    </g>
    <g text-rendering="geometricPrecision" stroke-miterlimit="1.45" shape-rendering="geometricPrecision" transform="matrix(1,0,0,1,406,-1149)" stroke-linecap="butt">
      <ellipse rx="87.0596" fill="none" ry="15" clip-path="url(#clipPath2)" cx="325.7348" cy="1251.2101"/>
      <text x="245.6752" xml:space="preserve" y="1255.924" clip-path="url(#clipPath2)" font-family="sans-serif" stroke="none">Babbage, Charles, 1791-1871</text>
    </g>
    <g fill="white" text-rendering="geometricPrecision" shape-rendering="geometricPrecision" transform="matrix(1,0,0,1,406,-1149)" stroke="white">
      <ellipse rx="75.6982" ry="15" clip-path="url(#clipPath2)" cx="748.374" cy="1368.5056" stroke="none"/>
    </g>
    <g text-rendering="geometricPrecision" stroke-miterlimit="1.45" shape-rendering="geometricPrecision" transform="matrix(1,0,0,1,406,-1149)" stroke-linecap="butt">
      <ellipse rx="75.6982" fill="none" ry="15" clip-path="url(#clipPath2)" cx="748.374" cy="1368.5056"/>
      <text x="679.6758" xml:space="preserve" y="1373.2195" clip-path="url(#clipPath2)" font-family="sans-serif" stroke="none">London : R. &amp; J. E. Taylor</text>
    </g>
    <g fill="white" text-rendering="geometricPrecision" shape-rendering="geometricPrecision" transform="matrix(1,0,0,1,406,-1149)" stroke="white">
      <ellipse rx="20.3477" ry="15" clip-path="url(#clipPath2)" cx="550.3485" cy="1628.7085" stroke="none"/>
    </g>
    <g text-rendering="geometricPrecision" stroke-miterlimit="1.45" shape-rendering="geometricPrecision" transform="matrix(1,0,0,1,406,-1149)" stroke-linecap="butt">
      <ellipse rx="20.3477" fill="none" ry="15" clip-path="url(#clipPath2)" cx="550.3485" cy="1628.7085"/>
      <text x="537.0009" xml:space="preserve" y="1633.4224" clip-path="url(#clipPath2)" font-family="sans-serif" stroke="none">1843</text>
      <ellipse clip-path="url(#clipPath2)" fill="none" rx="345.3262" cx="-44.7913" ry="15" cy="1728.2209" stroke="rgb(255,102,0)" stroke-width="2"/>
      <text x="-383.1175" xml:space="preserve" y="1732.9348" clip-path="url(#clipPath2)" font-family="sans-serif" stroke="none">Ada, the enchantress of numbers : a selection from the letters of Lord Byron's daughter and her description of the first computer</text>
    </g>
    <g fill="white" text-rendering="geometricPrecision" shape-rendering="geometricPrecision" transform="matrix(1,0,0,1,406,-1149)" stroke="white">
      <ellipse rx="91.0381" ry="15" clip-path="url(#clipPath2)" cx="32.999" cy="1628.7085" stroke="none"/>
    </g>
    <g text-rendering="geometricPrecision" stroke-miterlimit="1.45" shape-rendering="geometricPrecision" transform="matrix(1,0,0,1,406,-1149)" stroke-linecap="butt">
      <ellipse rx="91.0381" fill="none" ry="15" clip-path="url(#clipPath2)" cx="32.999" cy="1628.7085"/>
      <text x="-51.0391" xml:space="preserve" y="1633.4224" clip-path="url(#clipPath2)" font-family="sans-serif" stroke="none">Betty A Toole (Betty Alexandra)</text>
    </g>
    <g fill="white" text-rendering="geometricPrecision" shape-rendering="geometricPrecision" transform="matrix(1,0,0,1,406,-1149)" stroke="white">
      <ellipse rx="225.4053" ry="15" clip-path="url(#clipPath2)" cx="-139.9146" cy="1486.5572" stroke="none"/>
    </g>
    <g text-rendering="geometricPrecision" stroke-miterlimit="1.45" shape-rendering="geometricPrecision" transform="matrix(1,0,0,1,406,-1149)" stroke-linecap="butt">
      <ellipse rx="225.4053" fill="none" ry="15" clip-path="url(#clipPath2)" cx="-139.9146" cy="1486.5572"/>
      <text x="-358.3199" xml:space="preserve" y="1491.2711" clip-path="url(#clipPath2)" font-family="sans-serif" stroke="none">Mill Valley, Calif. : Strawberry Press ; Sausalito, CA : Orders to Critical Connection</text>
    </g>
    <g fill="white" text-rendering="geometricPrecision" shape-rendering="geometricPrecision" transform="matrix(1,0,0,1,406,-1149)" stroke="white">
      <ellipse rx="20.3477" ry="15" clip-path="url(#clipPath2)" cx="201.7757" cy="1678.4647" stroke="none"/>
    </g>
    <g text-rendering="geometricPrecision" stroke-miterlimit="1.45" shape-rendering="geometricPrecision" transform="matrix(1,0,0,1,406,-1149)" stroke-linecap="butt">
      <ellipse rx="20.3477" fill="none" ry="15" clip-path="url(#clipPath2)" cx="201.7757" cy="1678.4647"/>
      <text x="188.428" xml:space="preserve" y="1683.1786" clip-path="url(#clipPath2)" font-family="sans-serif" stroke="none">1992</text>
    </g>
    <g fill="white" text-rendering="geometricPrecision" shape-rendering="geometricPrecision" transform="matrix(1,0,0,1,406,-1149)" stroke="white">
      <ellipse rx="20.6758" ry="15" clip-path="url(#clipPath2)" cx="-119.2262" cy="1638.5086" stroke="none"/>
    </g>
    <g text-rendering="geometricPrecision" stroke-miterlimit="1.45" shape-rendering="geometricPrecision" transform="matrix(1,0,0,1,406,-1149)" stroke-linecap="butt">
      <ellipse rx="20.6758" fill="none" ry="15" clip-path="url(#clipPath2)" cx="-119.2262" cy="1638.5086"/>
      <text x="-132.9019" xml:space="preserve" y="1643.2225" clip-path="url(#clipPath2)" font-family="sans-serif" stroke="none">Book</text>
    </g>
    <g fill="white" text-rendering="geometricPrecision" shape-rendering="geometricPrecision" transform="matrix(1,0,0,1,406,-1149)" stroke="white">
      <ellipse rx="51.3613" ry="15" clip-path="url(#clipPath2)" cx="-231.7746" cy="1581.8041" stroke="none"/>
    </g>
    <g text-rendering="geometricPrecision" stroke-miterlimit="1.45" shape-rendering="geometricPrecision" transform="matrix(1,0,0,1,406,-1149)" stroke-linecap="butt">
      <ellipse rx="51.3613" fill="none" ry="15" clip-path="url(#clipPath2)" cx="-231.7746" cy="1581.8041"/>
      <text x="-276.1359" xml:space="preserve" y="1586.5179" clip-path="url(#clipPath2)" font-family="sans-serif" stroke="none">Correspondence</text>
    </g>
    <g fill="white" text-rendering="geometricPrecision" shape-rendering="geometricPrecision" transform="matrix(1,0,0,1,406,-1149)" stroke="white">
      <ellipse rx="62.3418" ry="15" clip-path="url(#clipPath2)" cx="264.8931" cy="1607.3891" stroke="none"/>
    </g>
    <g text-rendering="geometricPrecision" stroke-miterlimit="1.45" shape-rendering="geometricPrecision" transform="matrix(1,0,0,1,406,-1149)" stroke-linecap="butt">
      <ellipse rx="62.3418" fill="none" ry="15" clip-path="url(#clipPath2)" cx="264.8931" cy="1607.3891"/>
      <text x="209.5513" xml:space="preserve" y="1612.1029" clip-path="url(#clipPath2)" font-family="sans-serif" stroke="none">Computers -- History</text>
    </g>
    <g fill="white" text-rendering="geometricPrecision" shape-rendering="geometricPrecision" transform="matrix(1,0,0,1,406,-1149)" stroke="white">
      <ellipse rx="97.709" ry="15" clip-path="url(#clipPath2)" cx="-267.6109" cy="1659.965" stroke="none"/>
    </g>
    <g text-rendering="geometricPrecision" stroke-miterlimit="1.45" shape-rendering="geometricPrecision" transform="matrix(1,0,0,1,406,-1149)" stroke-linecap="butt">
      <ellipse rx="97.709" fill="none" ry="15" clip-path="url(#clipPath2)" cx="-267.6109" cy="1659.965"/>
      <text x="-358.3199" xml:space="preserve" y="1664.6788" clip-path="url(#clipPath2)" font-family="sans-serif" stroke="none">Mathematician -- Correspondence</text>
    </g>
    <g fill="white" text-rendering="geometricPrecision" shape-rendering="geometricPrecision" transform="matrix(1,0,0,1,406,-1149)" stroke="white">
      <ellipse rx="58.3546" ry="15" clip-path="url(#clipPath2)" cx="374.0814" cy="1795.0751" stroke="none"/>
    </g>
    <g text-rendering="geometricPrecision" stroke-miterlimit="1.45" shape-rendering="geometricPrecision" transform="matrix(1,0,0,1,406,-1149)" stroke-linecap="butt">
      <ellipse rx="58.3546" fill="none" ry="15" clip-path="url(#clipPath2)" cx="374.0814" cy="1795.0751"/>
      <text x="331.39" xml:space="preserve" y="1799.7889" clip-path="url(#clipPath2)" font-family="sans-serif" stroke="none">United Kingdom</text>
      <ellipse clip-path="url(#clipPath2)" fill="none" rx="70.3721" cx="465.8979" ry="15" cy="2067.181" stroke="rgb(255,102,0)" stroke-width="2"/>
      <text x="402.5258" xml:space="preserve" y="2071.8948" clip-path="url(#clipPath2)" font-family="sans-serif" stroke="none">Painting by A.E. Chalon</text>
      <ellipse rx="65.3652" fill="none" ry="15" clip-path="url(#clipPath2)" cx="326.9777" cy="2000.1354"/>
      <text x="268.6125" xml:space="preserve" y="2004.8492" clip-path="url(#clipPath2)" font-family="sans-serif" stroke="none">Alfred Edward Chalon</text>
    </g>
    <g fill="white" text-rendering="geometricPrecision" shape-rendering="geometricPrecision" transform="matrix(1,0,0,1,406,-1149)" stroke="white">
      <ellipse rx="39.3438" ry="15" clip-path="url(#clipPath2)" cx="691.1656" cy="2115.0254" stroke="none"/>
    </g>
    <g text-rendering="geometricPrecision" stroke-miterlimit="1.45" shape-rendering="geometricPrecision" transform="matrix(1,0,0,1,406,-1149)" stroke-linecap="butt">
      <ellipse rx="39.3438" fill="none" ry="15" clip-path="url(#clipPath2)" cx="691.1656" cy="2115.0254"/>
      <text x="658.8219" xml:space="preserve" y="2119.7393" clip-path="url(#clipPath2)" font-family="sans-serif" stroke="none">Watercolour</text>
      <ellipse rx="99.376" fill="none" ry="15" clip-path="url(#clipPath2)" cx="543.2933" cy="2193.8196"/>
      <text x="450.9173" xml:space="preserve" y="2198.5334" clip-path="url(#clipPath2)" font-family="sans-serif" stroke="none">Science Museum Group Collection</text>
      <ellipse rx="20.3477" fill="none" ry="15" clip-path="url(#clipPath2)" cx="351.0758" cy="2150.5661"/>
      <text x="337.7281" xml:space="preserve" y="2155.28" clip-path="url(#clipPath2)" font-family="sans-serif" stroke="none">1840</text>
      <ellipse clip-path="url(#clipPath2)" fill="none" rx="118.2021" cx="13.8414" ry="15" cy="1313.1495" stroke="rgb(255,102,0)" stroke-width="2"/>
      <text x="-97.3608" xml:space="preserve" y="1317.8633" clip-path="url(#clipPath2)" font-family="sans-serif" stroke="none">Babbage's Analytical Engine (Trial model)</text>
      <ellipse rx="20.3477" fill="none" ry="15" clip-path="url(#clipPath2)" cx="209.745" cy="1380.0866"/>
      <text x="196.3973" xml:space="preserve" y="1384.8005" clip-path="url(#clipPath2)" font-family="sans-serif" stroke="none">1871</text>
      <ellipse rx="138.7334" fill="none" ry="15" clip-path="url(#clipPath2)" cx="-57.2006" cy="1221.1127"/>
      <text x="-188.934" xml:space="preserve" y="1225.8265" clip-path="url(#clipPath2)" font-family="sans-serif" stroke="none">various metals, steel, brass, bronze etc and wood</text>
      <ellipse rx="99.376" fill="none" ry="15" clip-path="url(#clipPath2)" cx="-52.5569" cy="1405.1862"/>
      <text x="-144.9329" xml:space="preserve" y="1409.9001" clip-path="url(#clipPath2)" font-family="sans-serif" stroke="none">Science Museum Group Collection</text>
      <ellipse rx="54.6836" fill="none" ry="15" clip-path="url(#clipPath2)" cx="901.7334" cy="1477.2534"/>
      <text x="854.0498" xml:space="preserve" y="1481.9673" clip-path="url(#clipPath2)" font-family="sans-serif" stroke="none">Selmer Bringsjord</text>
      <ellipse rx="34.0176" fill="none" ry="15" clip-path="url(#clipPath2)" cx="1285.2043" cy="1742.0866"/>
      <text x="1258.1866" xml:space="preserve" y="1746.8004" clip-path="url(#clipPath2)" font-family="sans-serif" stroke="none">Paul Bello</text>
      <ellipse rx="45.6748" fill="none" ry="15" clip-path="url(#clipPath2)" cx="955.0768" cy="1672.2454"/>
      <text x="916.402" xml:space="preserve" y="1676.9592" clip-path="url(#clipPath2)" font-family="sans-serif" stroke="none">David Ferrucci</text>
      <ellipse rx="306.502" fill="none" ry="15" clip-path="url(#clipPath2)" cx="1557.6887" cy="1526.0012"/>
      <text x="1258.1866" xml:space="preserve" y="1530.7151" clip-path="url(#clipPath2)" font-family="sans-serif" stroke="none">Minds and Machines : Journal for Artificial Intelligence, Philosophy and Cognitive Science, v11 n1 (200102): 3-27</text>
      <ellipse rx="136.0557" fill="none" ry="15" clip-path="url(#clipPath2)" cx="1146.1509" cy="1368.5056"/>
      <text x="1017.0953" xml:space="preserve" y="1373.2195" clip-path="url(#clipPath2)" font-family="sans-serif" stroke="none">Dordrecht : Kluwer Academic Publishers, c1991-</text>
      <ellipse rx="42.6836" fill="none" ry="15" clip-path="url(#clipPath2)" cx="1103.8789" cy="1714.9746"/>
      <text x="1068.1953" xml:space="preserve" y="1719.6885" clip-path="url(#clipPath2)" font-family="sans-serif" stroke="none">journal article</text>
      <ellipse rx="60.0244" fill="none" ry="15" clip-path="url(#clipPath2)" cx="975.1623" cy="1280.0348"/>
      <text x="922.1379" xml:space="preserve" y="1284.7487" clip-path="url(#clipPath2)" font-family="sans-serif" stroke="none">Artificial Intelligence</text>
    </g>
    <g fill="white" text-rendering="geometricPrecision" shape-rendering="geometricPrecision" transform="matrix(1,0,0,1,406,-1149)" stroke="white">
      <ellipse rx="198.748" ry="15" clip-path="url(#clipPath2)" cx="1013.3599" cy="1559.0324" stroke="none"/>
    </g>
    <g stroke-linecap="butt" transform="matrix(1,0,0,1,406,-1149)" fill="rgb(255,102,0)" text-rendering="geometricPrecision" shape-rendering="geometricPrecision" stroke="rgb(255,102,0)" stroke-width="2" stroke-miterlimit="1.45">
      <ellipse rx="198.748" fill="none" ry="15" clip-path="url(#clipPath2)" cx="1013.3599" cy="1559.0324"/>
    </g>
    <g text-rendering="geometricPrecision" stroke-miterlimit="1.45" shape-rendering="geometricPrecision" font-family="sans-serif" transform="matrix(1,0,0,1,406,-1149)" stroke-linecap="butt">
      <text x="821.6119" xml:space="preserve" y="1563.7462" clip-path="url(#clipPath2)" stroke="none">Creativity, the Turing Test, and the (Better) Lovelace Test (Article, 2001)</text>
      <path fill="none" d="M499.0619 1736.1674 L669.3748 1928.3334" clip-path="url(#clipPath2)"/>
      <path d="M674.681 1934.3204 L670.4636 1922.0236 L668.7115 1927.5851 L662.9798 1928.6564 Z" clip-path="url(#clipPath2)" stroke="none"/>
      <rect x="545.3568" y="1826.8398" clip-path="url(#clipPath2)" fill="white" width="84.707" height="18.7012" stroke="none"/>
      <text x="547.3568" xml:space="preserve" y="1840.9042" clip-path="url(#clipPath2)" stroke="none">was created by</text>
      <path fill="none" d="M966.1781 2024.1973 L768.2333 1973.7106" clip-path="url(#clipPath2)"/>
      <path d="M760.4814 1971.7335 L770.8736 1979.5441 L769.2023 1973.9578 L773.3449 1969.8542 Z" clip-path="url(#clipPath2)" stroke="none"/>
      <rect x="847.2082" y="1989.8618" clip-path="url(#clipPath2)" fill="white" width="42.0215" height="18.7012" stroke="none"/>
      <text x="849.2082" xml:space="preserve" y="2003.9263" clip-path="url(#clipPath2)" stroke="none">depicts</text>
      <path fill="none" d="M934.3248 2036.2312 L854.0186 2036.2312" clip-path="url(#clipPath2)"/>
      <path d="M846.0186 2036.2312 L858.0186 2041.2312 L855.0186 2036.2312 L858.0186 2031.2312 Z" clip-path="url(#clipPath2)" stroke="none"/>
      <rect x="867.4939" y="2026.8806" clip-path="url(#clipPath2)" fill="white" width="45.3555" height="18.7012" stroke="none"/>
      <text x="869.494" xml:space="preserve" y="2040.9451" clip-path="url(#clipPath2)" stroke="none">has title</text>
      <path fill="none" d="M1002.9473 2021.3619 L946.3573 1940.5508" clip-path="url(#clipPath2)"/>
      <path d="M941.7684 1933.9978 L944.5562 1946.6953 L946.9309 1941.3699 L952.7474 1940.9592 Z" clip-path="url(#clipPath2)" stroke="none"/>
      <rect x="930.0067" y="1968.3327" clip-path="url(#clipPath2)" fill="white" width="84.707" height="18.7012" stroke="none"/>
      <text x="932.0067" xml:space="preserve" y="1982.3971" clip-path="url(#clipPath2)" stroke="none">was created by</text>
      <path fill="none" d="M1017.4352 2051.2112 L1055.437 2190.9004" clip-path="url(#clipPath2)"/>
      <path d="M1057.5371 2198.6199 L1059.2117 2185.7283 L1055.1746 2189.9355 L1049.5624 2188.3533 Z" clip-path="url(#clipPath2)" stroke="none"/>
      <rect x="993.5434" y="2092.4054" clip-path="url(#clipPath2)" fill="white" width="81.373" height="18.7012" stroke="none"/>
      <text x="995.5434" xml:space="preserve" y="2106.47" clip-path="url(#clipPath2)" stroke="none">was created in</text>
      <path fill="none" d="M1005.2109 2051.1511 L917.863 2211.0764" clip-path="url(#clipPath2)"/>
      <path d="M914.0283 2218.0974 L924.1685 2209.9626 L918.3423 2210.1987 L915.3922 2205.1692 Z" clip-path="url(#clipPath2)" stroke="none"/>
      <rect x="935.0736" y="2125.0253" clip-path="url(#clipPath2)" fill="white" width="49.3633" height="18.7012" stroke="none"/>
      <text x="937.0736" xml:space="preserve" y="2139.0896" clip-path="url(#clipPath2)" stroke="none">has type</text>
      <path fill="none" d="M1051.9854 2049.3179 L1143.4119 2080.2939" clip-path="url(#clipPath2)"/>
      <path d="M1150.9888 2082.8611 L1141.2279 2074.2749 L1142.4647 2079.9731 L1138.0189 2083.7458 Z" clip-path="url(#clipPath2)" stroke="none"/>
      <rect x="1096.854" y="2043.7069" clip-path="url(#clipPath2)" fill="white" width="51.3555" height="18.7012" stroke="none"/>
      <text x="1098.854" xml:space="preserve" y="2057.7715" clip-path="url(#clipPath2)" stroke="none">is kept in</text>
      <path fill="none" d="M977.7542 2049.6228 L840.6998 2101.1699" clip-path="url(#clipPath2)"/>
      <path d="M833.212 2103.9863 L846.204 2104.4417 L841.6358 2100.8179 L842.6835 2095.0818 Z" clip-path="url(#clipPath2)" stroke="none"/>
      <rect x="892.9599" y="2056.2312" clip-path="url(#clipPath2)" fill="white" width="84.7246" height="18.7012" stroke="none"/>
      <text x="894.9599" xml:space="preserve" y="2070.2957" clip-path="url(#clipPath2)" stroke="none">uses technique</text>
      <path fill="none" d="M481.4436 1687.291 L510.9276 1448.292" clip-path="url(#clipPath2)"/>
      <path d="M511.907 1440.3522 L505.4754 1451.6497 L510.8051 1449.2844 L515.4002 1452.874 Z" clip-path="url(#clipPath2)" stroke="none"/>
      <rect x="453.6565" y="1554.4498" clip-path="url(#clipPath2)" fill="white" width="86.043" height="18.7012" stroke="none"/>
      <text x="455.6565" xml:space="preserve" y="1568.5143" clip-path="url(#clipPath2)" stroke="none">is referenced in</text>
      <path fill="none" d="M518.816 1440.3315 L683.0726 1926.5833" clip-path="url(#clipPath2)"/>
      <path d="M685.6328 1934.1625 L686.5294 1921.1935 L682.7525 1925.6359 L677.0554 1924.3938 Z" clip-path="url(#clipPath2)" stroke="none"/>
      <rect x="560.3665" y="1643.8223" clip-path="url(#clipPath2)" fill="white" width="60.6953" height="18.7012" stroke="none"/>
      <text x="562.3665" xml:space="preserve" y="1657.8867" clip-path="url(#clipPath2)" stroke="none">contributor</text>
      <path fill="none" d="M518.1408 1410.3733 L579.0946 1202.053" clip-path="url(#clipPath2)"/>
      <path d="M581.3412 1194.3749 L573.1725 1204.4879 L578.8138 1203.0127 L582.7701 1207.2961 Z" clip-path="url(#clipPath2)" stroke="none"/>
      <rect x="515.8778" y="1343.7777" clip-path="url(#clipPath2)" fill="white" width="38.0254" height="18.7012" stroke="none"/>
      <text x="517.8778" xml:space="preserve" y="1357.8422" clip-path="url(#clipPath2)" stroke="none">author</text>
      <path fill="none" d="M497.8194 1410.594 L347.5262 1271.3932" clip-path="url(#clipPath2)"/>
      <path d="M341.6569 1265.9572 L347.0634 1277.7795 L348.2599 1272.0728 L353.8584 1270.4429 Z" clip-path="url(#clipPath2)" stroke="none"/>
      <rect x="398.7352" y="1328.9322" clip-path="url(#clipPath2)" fill="white" width="42.0215" height="18.7012" stroke="none"/>
      <text x="400.7352" xml:space="preserve" y="1342.9966" clip-path="url(#clipPath2)" stroke="none">subject</text>
      <path fill="none" d="M564.7095 1413.0092 L692.6782 1382.0012" clip-path="url(#clipPath2)"/>
      <path d="M700.4531 1380.1172 L687.6131 1378.0839 L691.7062 1382.2367 L689.9681 1387.8026 Z" clip-path="url(#clipPath2)" stroke="none"/>
      <rect x="604.7169" y="1387.5799" clip-path="url(#clipPath2)" fill="white" width="52.6973" height="18.7012" stroke="none"/>
      <text x="606.7169" xml:space="preserve" y="1401.6443" clip-path="url(#clipPath2)" stroke="none">publisher</text>
      <path fill="none" d="M516.455 1440.3486 L546.256 1605.9652" clip-path="url(#clipPath2)"/>
      <path d="M547.6729 1613.8387 L550.4686 1601.1429 L546.0789 1604.981 L540.6266 1602.9139 Z" clip-path="url(#clipPath2)" stroke="none"/>
      <rect x="518.3751" y="1517.6814" clip-path="url(#clipPath2)" fill="white" width="27.3555" height="18.7012" stroke="none"/>
      <text x="520.3751" xml:space="preserve" y="1531.7458" clip-path="url(#clipPath2)" stroke="none">date</text>
      <path fill="none" d="M498.4849 1689.2047 L534.271 1647.462" clip-path="url(#clipPath2)"/>
      <path d="M539.478 1641.3885 L527.8716 1647.2445 L533.6202 1648.2213 L535.4635 1653.7532 Z" clip-path="url(#clipPath2)" stroke="none"/>
      <rect x="505.1491" y="1656.1264" clip-path="url(#clipPath2)" fill="white" width="27.3555" height="18.7012" stroke="none"/>
      <text x="507.1491" xml:space="preserve" y="1670.1908" clip-path="url(#clipPath2)" stroke="none">date</text>
      <path fill="none" d="M425.9006 1714.2957 L248.6201 1719.5404" clip-path="url(#clipPath2)"/>
      <path d="M240.6236 1719.777 L252.7662 1724.4199 L249.6196 1719.5109 L252.4704 1714.4243 Z" clip-path="url(#clipPath2)" stroke="none"/>
      <path fill="none" d="M3.6231 1743.0728 L625.788 1933.9314" clip-path="url(#clipPath2)"/>
      <path d="M633.4362 1936.2776 L623.4302 1927.9781 L624.832 1933.6381 L620.4975 1937.5385 Z" clip-path="url(#clipPath2)" stroke="none"/>
      <rect x="296.2667" y="1829.3275" clip-path="url(#clipPath2)" fill="white" width="38.0254" height="18.7012" stroke="none"/>
      <text x="298.2667" xml:space="preserve" y="1843.392" clip-path="url(#clipPath2)" stroke="none">author</text>
      <path fill="none" d="M-33.0723 1713.2295 L16.4424 1649.8884" clip-path="url(#clipPath2)"/>
      <path d="M21.3694 1643.5857 L10.0397 1649.9604 L15.8265 1650.6763 L17.9181 1656.1191 Z" clip-path="url(#clipPath2)" stroke="none"/>
      <rect x="-22.9049" y="1669.1141" clip-path="url(#clipPath2)" fill="white" width="34.0176" height="18.7012" stroke="none"/>
      <text x="-20.9049" xml:space="preserve" y="1683.1786" clip-path="url(#clipPath2)" stroke="none">editor</text>
      <path fill="none" d="M-50.6947 1713.2231 L-131.0822 1508.9962" clip-path="url(#clipPath2)"/>
      <path d="M-134.0124 1501.5521 L-134.2697 1514.5496 L-130.716 1509.9268 L-124.9646 1510.887 Z" clip-path="url(#clipPath2)" stroke="none"/>
      <rect x="-118.7016" y="1598.0385" clip-path="url(#clipPath2)" fill="white" width="52.6973" height="18.7012" stroke="none"/>
      <text x="-116.7016" xml:space="preserve" y="1612.1029" clip-path="url(#clipPath2)" stroke="none">publisher</text>
      <path fill="none" d="M27.8768 1713.5568 L174.3081 1684.0076" clip-path="url(#clipPath2)"/>
      <path d="M182.15 1682.425 L169.3981 1679.8976 L173.3279 1684.2053 L171.3762 1689.7001 Z" clip-path="url(#clipPath2)" stroke="none"/>
      <rect x="120.4397" y="1682.7673" clip-path="url(#clipPath2)" fill="white" width="27.3555" height="18.7012" stroke="none"/>
      <text x="122.4397" xml:space="preserve" y="1696.8318" clip-path="url(#clipPath2)" stroke="none">date</text>
      <path fill="none" d="M-57.2288 1713.2306 L-103.455 1657.5167" clip-path="url(#clipPath2)"/>
      <path d="M-108.5633 1651.36 L-104.7488 1663.7877 L-102.8165 1658.2864 L-97.0529 1657.4025 Z" clip-path="url(#clipPath2)" stroke="none"/>
      <rect x="-95.3495" y="1674.0142" clip-path="url(#clipPath2)" fill="white" width="26.6816" height="18.7012" stroke="none"/>
      <text x="-93.3495" xml:space="preserve" y="1688.0786" clip-path="url(#clipPath2)" stroke="none">type</text>
      <path fill="none" d="M-136.2085 1629.9525 L-198.8724 1598.381" clip-path="url(#clipPath2)"/>
      <path d="M-206.0169 1594.7815 L-197.5499 1604.646 L-197.9793 1598.8309 L-193.0505 1595.7155 Z" clip-path="url(#clipPath2)" stroke="none"/>
      <rect x="-185.229" y="1604.6435" clip-path="url(#clipPath2)" fill="white" width="34.6914" height="18.7012" stroke="none"/>
      <text x="-183.229" xml:space="preserve" y="1618.7079" clip-path="url(#clipPath2)" stroke="none">genre</text>
      <path fill="none" d="M-6.5833 1713.313 L224.7178 1623.0646" clip-path="url(#clipPath2)"/>
      <path d="M232.1706 1620.1566 L219.174 1619.8606 L223.7862 1623.4281 L222.8089 1629.1765 Z" clip-path="url(#clipPath2)" stroke="none"/>
      <rect x="89.0402" y="1658.4544" clip-path="url(#clipPath2)" fill="white" width="42.0215" height="18.7012" stroke="none"/>
      <text x="91.0402" xml:space="preserve" y="1672.5188" clip-path="url(#clipPath2)" stroke="none">subject</text>
      <path fill="none" d="M494.1293 1439.9919 L291.1485 1591.3562 L287.747 1593.4333" clip-path="url(#clipPath2)"/>
      <path d="M287.747 1593.4333 L300.5943 1591.4465 L295.4281 1588.7428 L295.3826 1582.912 Z" clip-path="url(#clipPath2)" stroke="none"/>
      <rect x="361.7624" y="1513.6805" clip-path="url(#clipPath2)" fill="white" width="42.0215" height="18.7012" stroke="none"/>
      <text x="363.7624" xml:space="preserve" y="1527.745" clip-path="url(#clipPath2)" stroke="none">subject</text>
      <path fill="none" d="M441.4835 1694.5681 L299.3794 1624.4142" clip-path="url(#clipPath2)"/>
      <path d="M292.2059 1620.8728 L300.7528 1630.6683 L300.2761 1624.8568 L305.1795 1621.7014 Z" clip-path="url(#clipPath2)" stroke="none"/>
      <rect x="338.0527" y="1645.5177" clip-path="url(#clipPath2)" fill="white" width="46.0293" height="18.7012" stroke="none"/>
      <text x="340.0527" xml:space="preserve" y="1659.5822" clip-path="url(#clipPath2)" stroke="none">concept</text>
      <path fill="none" d="M-93.2734 1713.3695 L-216.1844 1675.7184" clip-path="url(#clipPath2)"/>
      <path d="M-223.8336 1673.3752 L-213.8243 1681.6707 L-215.2283 1676.0112 L-210.8954 1672.1093 Z" clip-path="url(#clipPath2)" stroke="none"/>
      <rect x="-177.2118" y="1684.7424" clip-path="url(#clipPath2)" fill="white" width="42.0215" height="18.7012" stroke="none"/>
      <text x="-175.2118" xml:space="preserve" y="1698.8068" clip-path="url(#clipPath2)" stroke="none">subject</text>
      <path fill="none" d="M450.805 1734.4677 L398.4157 1775.8523" clip-path="url(#clipPath2)"/>
      <path d="M392.1381 1780.8113 L404.6539 1777.2963 L399.2004 1775.2324 L398.4552 1769.4493 Z" clip-path="url(#clipPath2)" stroke="none"/>
      <rect x="403.2027" y="1749.8097" clip-path="url(#clipPath2)" fill="white" width="32.6875" height="18.7012" stroke="none"/>
      <text x="405.2027" xml:space="preserve" y="1763.8741" clip-path="url(#clipPath2)" stroke="none">place</text>
      <path fill="none" d="M493.5957 2053.3916 L646.4347 1977.301" clip-path="url(#clipPath2)"/>
      <path d="M653.5963 1973.7357 L640.6256 1974.6077 L645.5395 1977.7467 L645.0823 1983.5597 Z" clip-path="url(#clipPath2)" stroke="none"/>
      <rect x="552.8976" y="2004.0576" clip-path="url(#clipPath2)" fill="white" width="42.0215" height="18.7012" stroke="none"/>
      <text x="554.8976" xml:space="preserve" y="2018.1221" clip-path="url(#clipPath2)" stroke="none">depicts</text>
      <path fill="none" d="M528.0652 2060.1519 L648.6818 2046.5143" clip-path="url(#clipPath2)"/>
      <path d="M656.6312 2045.6155 L644.1454 2041.9954 L647.6882 2046.6266 L645.2689 2051.9321 Z" clip-path="url(#clipPath2)" stroke="none"/>
      <rect x="562.0769" y="2044.3917" clip-path="url(#clipPath2)" fill="white" width="45.3555" height="18.7012" stroke="none"/>
      <text x="564.0769" xml:space="preserve" y="2058.4561" clip-path="url(#clipPath2)" stroke="none">has title</text>
      <path fill="none" d="M500.6339 2080.2263 L875.3638 2220.9583" clip-path="url(#clipPath2)"/>
      <path d="M882.853 2223.771 L873.3771 2214.8711 L874.4277 2220.6067 L869.8612 2224.2327 Z" clip-path="url(#clipPath2)" stroke="none"/>
      <rect x="671.2367" y="2144.2159" clip-path="url(#clipPath2)" fill="white" width="49.3633" height="18.7012" stroke="none"/>
      <text x="673.2367" xml:space="preserve" y="2158.2803" clip-path="url(#clipPath2)" stroke="none">has type</text>
      <path fill="none" d="M437.467 2053.4597 L362.2514 2017.1592" clip-path="url(#clipPath2)"/>
      <path d="M355.0466 2013.682 L363.6806 2023.4008 L363.152 2017.5939 L368.027 2014.3948 Z" clip-path="url(#clipPath2)" stroke="none"/>
      <path fill="none" d="M533.0052 2071.7014 L651.498 2104.1594" clip-path="url(#clipPath2)"/>
      <path d="M659.2138 2106.2729 L648.9611 2098.2803 L650.5336 2103.8953 L646.3192 2107.925 Z" clip-path="url(#clipPath2)" stroke="none"/>
      <rect x="551.6836" y="2079.0714" clip-path="url(#clipPath2)" fill="white" width="84.7246" height="18.7012" stroke="none"/>
      <text x="553.6837" xml:space="preserve" y="2093.1357" clip-path="url(#clipPath2)" stroke="none">uses technique</text>
      <path fill="none" d="M474.9884 2082.0552 L529.993 2172.0569" clip-path="url(#clipPath2)"/>
      <path d="M534.1648 2178.8831 L532.1735 2166.0364 L529.4716 2171.2036 L523.6407 2171.2512 Z" clip-path="url(#clipPath2)" stroke="none"/>
      <rect x="478.9179" y="2121.1497" clip-path="url(#clipPath2)" fill="white" width="51.3555" height="18.7012" stroke="none"/>
      <text x="480.9179" xml:space="preserve" y="2135.2141" clip-path="url(#clipPath2)" stroke="none">is kept in</text>
      <path fill="none" d="M446.0789 2081.5737 L372.0444 2135.3384" clip-path="url(#clipPath2)"/>
      <path d="M365.5713 2140.0393 L378.219 2137.0337 L372.8535 2134.7507 L372.3429 2128.9421 Z" clip-path="url(#clipPath2)" stroke="none"/>
      <rect x="366.1333" y="2099.523" clip-path="url(#clipPath2)" fill="white" width="84.707" height="18.7012" stroke="none"/>
      <text x="368.1333" xml:space="preserve" y="2113.5874" clip-path="url(#clipPath2)" stroke="none">was created in </text>
      <path fill="none" d="M77.4885 1300.5096 L260.8354 1264.0986" clip-path="url(#clipPath2)"/>
      <path d="M268.6821 1262.5403 L255.938 1259.9736 L259.8545 1264.2935 L257.886 1269.782 Z" clip-path="url(#clipPath2)" stroke="none"/>
      <rect x="117.6147" y="1274.4483" clip-path="url(#clipPath2)" fill="white" width="88.041" height="18.7012" stroke="none"/>
      <text x="119.6147" xml:space="preserve" y="1288.5127" clip-path="url(#clipPath2)" stroke="none">was created by </text>
      <path fill="none" d="M26.5653 1328.0623 L247.1637 1586.6096" clip-path="url(#clipPath2)"/>
      <path d="M252.3562 1592.6954 L248.3711 1580.3213 L246.5146 1585.8489 L240.7637 1586.8119 Z" clip-path="url(#clipPath2)" stroke="none"/>
      <rect x="118.3565" y="1450.9187" clip-path="url(#clipPath2)" fill="white" width="42.0215" height="18.7012" stroke="none"/>
      <text x="120.3565" xml:space="preserve" y="1464.9832" clip-path="url(#clipPath2)" stroke="none">subject</text>
      <path fill="none" d="M54.9949 1327.2109 L183.7136 1371.1921" clip-path="url(#clipPath2)"/>
      <path d="M191.2839 1373.7788 L181.5452 1365.1674 L182.7673 1370.8688 L178.3118 1374.6302 Z" clip-path="url(#clipPath2)" stroke="none"/>
      <rect x="78.5389" y="1340.3765" clip-path="url(#clipPath2)" fill="white" width="84.707" height="18.7012" stroke="none"/>
      <text x="80.5389" xml:space="preserve" y="1354.441" clip-path="url(#clipPath2)" stroke="none">was created in </text>
      <path fill="none" d="M2.3182 1298.2209 L-40.7742 1242.3936" clip-path="url(#clipPath2)"/>
      <path d="M-45.6625 1236.0608 L-42.2881 1248.6152 L-40.1632 1243.1852 L-34.372 1242.5049 Z" clip-path="url(#clipPath2)" stroke="none"/>
      <rect x="-59.3603" y="1257.7805" clip-path="url(#clipPath2)" fill="white" width="75.3613" height="18.7012" stroke="none"/>
      <text x="-57.3603" xml:space="preserve" y="1271.845" clip-path="url(#clipPath2)" stroke="none">has materials</text>
      <path fill="none" d="M3.0649 1328.087 L-37.1185 1383.7865" clip-path="url(#clipPath2)"/>
      <path d="M-41.799 1390.2744 L-30.7233 1383.4679 L-36.5334 1382.9756 L-38.8331 1377.6173 Z" clip-path="url(#clipPath2)" stroke="none"/>
      <rect x="-47.0365" y="1349.8173" clip-path="url(#clipPath2)" fill="white" width="55.3574" height="18.7012" stroke="none"/>
      <text x="-45.0365" xml:space="preserve" y="1363.8817" clip-path="url(#clipPath2)" stroke="none">is kept at </text>
      <path fill="none" d="M561.2995 1438.0762 L951.6763 1542.5278" clip-path="url(#clipPath2)"/>
      <path d="M959.4045 1544.5957 L949.1047 1536.6638 L950.7103 1542.2694 L946.5199 1546.324 Z" clip-path="url(#clipPath2)" stroke="none"/>
      <rect x="720.537" y="1482.8433" clip-path="url(#clipPath2)" fill="white" width="86.043" height="18.7012" stroke="none"/>
      <text x="722.537" xml:space="preserve" y="1496.9077" clip-path="url(#clipPath2)" stroke="none">is referenced in</text>
      <path fill="none" d="M992.993 1544.1113 L927.3615 1496.0289" clip-path="url(#clipPath2)"/>
      <path d="M920.9081 1491.301 L927.6333 1502.4263 L928.1682 1496.6199 L933.5432 1494.3595 Z" clip-path="url(#clipPath2)" stroke="none"/>
      <rect x="938.534" y="1508.7923" clip-path="url(#clipPath2)" fill="white" width="38.0254" height="18.7012" stroke="none"/>
      <text x="940.5339" xml:space="preserve" y="1522.8567" clip-path="url(#clipPath2)" stroke="none">author</text>
      <path fill="none" d="M1035.4971 1573.939 L1259.9329 1725.0693" clip-path="url(#clipPath2)"/>
      <path d="M1266.5686 1729.5377 L1259.4077 1718.6877 L1259.1034 1724.5107 L1253.8221 1726.9824 Z" clip-path="url(#clipPath2)" stroke="none"/>
      <rect x="1130.2694" y="1641.2089" clip-path="url(#clipPath2)" fill="white" width="38.0254" height="18.7012" stroke="none"/>
      <text x="1132.2694" xml:space="preserve" y="1655.2733" clip-path="url(#clipPath2)" stroke="none">author</text>
      <path fill="none" d="M1005.6436 1574.021 L966.3527 1650.3424" clip-path="url(#clipPath2)"/>
      <path d="M962.6909 1657.4552 L972.629 1649.0746 L966.8104 1649.4534 L963.738 1644.4974 Z" clip-path="url(#clipPath2)" stroke="none"/>
      <rect x="965.2057" y="1606.2883" clip-path="url(#clipPath2)" fill="white" width="38.0254" height="18.7012" stroke="none"/>
      <text x="967.2057" xml:space="preserve" y="1620.3528" clip-path="url(#clipPath2)" stroke="none">author</text>
      <path fill="none" d="M1168.2509 1549.6332 L1357.2914 1538.1617" clip-path="url(#clipPath2)"/>
      <path d="M1365.2767 1537.6772 L1352.996 1533.4132 L1356.2932 1538.2223 L1353.6016 1543.3948 Z" clip-path="url(#clipPath2)" stroke="none"/>
      <rect x="1228.7006" y="1535.3394" clip-path="url(#clipPath2)" fill="white" width="42.0215" height="18.7012" stroke="none"/>
      <text x="1230.7006" xml:space="preserve" y="1549.4038" clip-path="url(#clipPath2)" stroke="none">subject</text>
      <path fill="none" d="M1023.8 1544.0531 L1131.1528 1390.0247" clip-path="url(#clipPath2)"/>
      <path d="M1135.7272 1383.4614 L1124.7637 1390.4473 L1130.5811 1390.845 L1132.9677 1396.1652 Z" clip-path="url(#clipPath2)" stroke="none"/>
      <rect x="1110.7846" y="1466.8458" clip-path="url(#clipPath2)" fill="white" width="4" height="4" stroke="none"/>
      <rect x="1053.4068" y="1454.4184" clip-path="url(#clipPath2)" fill="white" width="52.6973" height="18.7012" stroke="none"/>
      <text x="1055.4069" xml:space="preserve" y="1468.4828" clip-path="url(#clipPath2)" stroke="none">publisher</text>
      <path fill="none" d="M1022.0585 1574.0179 L1091.3314 1693.3584" clip-path="url(#clipPath2)"/>
      <path d="M1095.3475 1700.2772 L1093.6476 1687.3888 L1090.8293 1692.4935 L1084.999 1692.4091 Z" clip-path="url(#clipPath2)" stroke="none"/>
      <rect x="1045.2786" y="1627.6529" clip-path="url(#clipPath2)" fill="white" width="26.6816" height="18.7012" stroke="none"/>
      <text x="1047.2786" xml:space="preserve" y="1641.7173" clip-path="url(#clipPath2)" stroke="none">type</text>
      <path fill="none" d="M1011.3064 1544.0332 L978.2999 1302.9521" clip-path="url(#clipPath2)"/>
      <path d="M977.2147 1295.0261 L973.8887 1307.5934 L978.4355 1303.943 L983.7962 1306.2369 Z" clip-path="url(#clipPath2)" stroke="none"/>
      <rect x="973.2504" y="1410.183" clip-path="url(#clipPath2)" fill="white" width="42.0215" height="18.7012" stroke="none"/>
      <text x="975.2504" xml:space="preserve" y="1424.2474" clip-path="url(#clipPath2)" stroke="none">subject</text>
      <path fill="none" d="M1001.2077 1574.0043 L713.8159 1928.0795" clip-path="url(#clipPath2)"/>
      <path d="M708.7742 1934.2909 L720.2188 1928.1248 L714.446 1927.303 L712.4545 1921.8228 Z" clip-path="url(#clipPath2)" stroke="none"/>
      <rect x="811.6901" y="1744.7333" clip-path="url(#clipPath2)" fill="white" width="86.7051" height="18.7012" stroke="none"/>
      <text x="813.6901" xml:space="preserve" y="1758.7977" clip-path="url(#clipPath2)" stroke="none">was inspired by</text>
    </g>
  </g>
</svg>
